<svg xmlns="http://www.w3.org/2000/svg" viewBox="0 0 512 512" width="512" height="512">
  <defs>
    <linearGradient id="bg" x1="0" y1="0" x2="1" y2="1">
      <stop offset="0" stop-color="#065f46"/>
      <stop offset="0.55" stop-color="#064e3b"/>
      <stop offset="1" stop-color="#022c22"/>
    </linearGradient>
    <radialGradient id="coin" cx="0.35" cy="0.3" r="1">
      <stop offset="0" stop-color="#fde68a"/>
      <stop offset="0.55" stop-color="#fbbf24"/>
      <stop offset="1" stop-color="#f59e0b"/>
    </radialGradient>
  </defs>
  <rect width="512" height="512" rx="116" fill="url(#bg)"/>
  <path d="M 222.26 109.84 A 150 150 0 0 1 289.74 109.84" stroke="#fbbf24" stroke-width="42" stroke-linecap="round" fill="none"/>
  <path d="M 335.49 128.79 A 150 150 0 0 1 383.21 176.51" stroke="#34d399" stroke-opacity="0.40" stroke-width="42" stroke-linecap="round" fill="none"/>
  <path d="M 402.16 222.26 A 150 150 0 0 1 402.16 289.74" stroke="#34d399" stroke-opacity="0.49" stroke-width="42" stroke-linecap="round" fill="none"/>
  <path d="M 383.21 335.49 A 150 150 0 0 1 335.49 383.21" stroke="#34d399" stroke-opacity="0.58" stroke-width="42" stroke-linecap="round" fill="none"/>
  <path d="M 289.74 402.16 A 150 150 0 0 1 222.26 402.16" stroke="#34d399" stroke-opacity="0.68" stroke-width="42" stroke-linecap="round" fill="none"/>
  <path d="M 176.51 383.21 A 150 150 0 0 1 128.79 335.49" stroke="#34d399" stroke-opacity="0.77" stroke-width="42" stroke-linecap="round" fill="none"/>
  <path d="M 109.84 289.74 A 150 150 0 0 1 109.84 222.26" stroke="#34d399" stroke-opacity="0.86" stroke-width="42" stroke-linecap="round" fill="none"/>
  <path d="M 128.79 176.51 A 150 150 0 0 1 176.51 128.79" stroke="#34d399" stroke-opacity="0.95" stroke-width="42" stroke-linecap="round" fill="none"/>
  <circle cx="256" cy="256" r="60" fill="url(#coin)" opacity="1"/>
  <circle cx="256" cy="256" r="36" fill="none" stroke="#b45309" stroke-opacity="0.75" stroke-width="7.6" opacity="1"/>
</svg>